G04*
G04 #@! TF.GenerationSoftware,Altium Limited,Altium Designer,23.6.0 (18)*
G04*
G04 Layer_Color=16711935*
%FSLAX25Y25*%
%MOIN*%
G70*
G04*
G04 #@! TF.SameCoordinates,B90E1885-5EE6-4A3D-B461-7850E0AA74F3*
G04*
G04*
G04 #@! TF.FilePolarity,Negative*
G04*
G01*
G75*
%ADD17R,0.06102X0.06102*%
%ADD18C,0.06102*%
%ADD19R,0.07913X0.07913*%
%ADD20C,0.07913*%
%ADD21C,0.07244*%
%ADD22R,0.07244X0.07244*%
%ADD23R,0.06890X0.06890*%
%ADD24C,0.06890*%
%ADD25C,0.06496*%
%ADD26C,0.07677*%
%ADD27R,0.06496X0.06496*%
%ADD28R,0.05315X0.05315*%
%ADD29C,0.05315*%
%ADD30C,0.06181*%
%ADD31R,0.06181X0.06181*%
%ADD32R,0.06528X0.06528*%
%ADD33C,0.06528*%
%ADD34C,0.14370*%
%ADD35R,0.05315X0.05315*%
%ADD36R,0.06102X0.06102*%
%ADD37R,0.06890X0.05315*%
D17*
X9804Y41496D02*
D03*
D18*
Y31496D02*
D03*
X136890Y37401D02*
D03*
D19*
X102205Y157480D02*
D03*
D20*
X112205D02*
D03*
X122205D02*
D03*
D21*
X226693Y153543D02*
D03*
X216693D02*
D03*
X206693D02*
D03*
X196693D02*
D03*
X186693D02*
D03*
D22*
X176693D02*
D03*
D23*
X61024Y17717D02*
D03*
D24*
X71024D02*
D03*
X81024D02*
D03*
X67717Y52362D02*
D03*
D25*
X191417Y115827D02*
D03*
X181417D02*
D03*
X171417D02*
D03*
X161417D02*
D03*
X151417D02*
D03*
X141417D02*
D03*
X131417D02*
D03*
X121417D02*
D03*
X91417D02*
D03*
X81417D02*
D03*
X71417D02*
D03*
X61417D02*
D03*
X191417Y85827D02*
D03*
X181417D02*
D03*
X171417D02*
D03*
X161417D02*
D03*
X151417D02*
D03*
X141417D02*
D03*
X131417D02*
D03*
X121417D02*
D03*
X111417D02*
D03*
X101417D02*
D03*
X91417D02*
D03*
X81417D02*
D03*
X71417D02*
D03*
X161417Y13779D02*
D03*
Y43307D02*
D03*
X192913Y13779D02*
D03*
Y43307D02*
D03*
D26*
X111417Y115827D02*
D03*
X101417D02*
D03*
D27*
X61417Y85827D02*
D03*
D28*
X72835Y133692D02*
D03*
D29*
X82677D02*
D03*
X208661Y125984D02*
D03*
Y85984D02*
D03*
X78346Y72835D02*
D03*
X118346D02*
D03*
X147874Y68897D02*
D03*
X134370Y126968D02*
D03*
X104331Y49606D02*
D03*
Y9606D02*
D03*
X157480Y165591D02*
D03*
Y125591D02*
D03*
X35630Y51181D02*
D03*
X230315Y125984D02*
D03*
Y85984D02*
D03*
D30*
X25591Y139921D02*
D03*
Y129921D02*
D03*
Y119921D02*
D03*
D31*
Y109921D02*
D03*
D32*
X213583Y62008D02*
D03*
X17913Y93909D02*
D03*
D33*
X213583Y36417D02*
D03*
X231299Y62008D02*
D03*
Y36417D02*
D03*
X35630Y68318D02*
D03*
Y93909D02*
D03*
X17913Y68318D02*
D03*
D34*
X9843Y167323D02*
D03*
Y9843D02*
D03*
X246063Y10594D02*
D03*
Y167323D02*
D03*
D35*
X167087Y68897D02*
D03*
X134370Y136811D02*
D03*
X35630Y41339D02*
D03*
D36*
X126890Y37401D02*
D03*
D37*
X77559Y52362D02*
D03*
M02*
