M48
;Layer_Color=9474304
;FILE_FORMAT=2:4
INCH,LZ
;TYPE=PLATED
T1F00S00C0.0276
T2F00S00C0.0315
T3F00S00C0.0350
T4F00S00C0.0354
T5F00S00C0.0394
T6F00S00C0.0402
T7F00S00C0.0469
T8F00S00C0.0488
T9F00S00C0.1260
%
T01
X010433Y000961
Y004961
X011835Y007283
X014787Y00689
X007835Y007283
X016709Y00689
X020866Y008598
X023031
Y012598
X020866
X015748Y012559
Y016559
T02
X003563Y004134
Y005118
X006772Y005236
X007756
X007283Y013369
X008268
X013437Y013681
Y012697
T03
X00098Y00315
Y00415
T04
X006142Y008583
X007142
X008142
X009142
X010142
X011142
X012142
X013142
X014142
X015142
Y011583
X014142
X013142
X012142
X011142
X010142
X009142
X008142
X007142
X006142
X012689Y00374
X013689
X016142Y004331
Y001378
X019291
Y004331
X019142Y008583
X018142
X017142
X016142
Y011583
X017142
X018142
X019142
T05
X006102Y001772
X007102
X008102
X003563Y006832
X001791
Y009391
X003563
X021358Y006201
X02313
Y003642
X021358
T06
X002559Y010992
Y011992
Y012992
Y013992
T07
X017669Y015354
X018669
X019669
X020669
X021669
X022669
T08
X01022Y015748
X01122
X01222
T09
X000984Y000984
X024606Y001059
Y016732
X000984
M30
