G04*
G04 #@! TF.GenerationSoftware,Altium Limited,Altium Designer,23.6.0 (18)*
G04*
G04 Layer_Color=65535*
%FSLAX25Y25*%
%MOIN*%
G70*
G04*
G04 #@! TF.SameCoordinates,B90E1885-5EE6-4A3D-B461-7850E0AA74F3*
G04*
G04*
G04 #@! TF.FilePolarity,Positive*
G04*
G01*
G75*
%ADD10C,0.00787*%
%ADD11C,0.00984*%
%ADD12C,0.02362*%
%ADD13C,0.01000*%
%ADD14C,0.00200*%
%ADD15C,0.00500*%
%ADD16C,0.00800*%
D10*
X102598Y147480D02*
G03*
X102598Y147480I-394J0D01*
G01*
X57913Y98327D02*
G03*
X57913Y103327I0J2500D01*
G01*
X87598Y133692D02*
G03*
X87598Y133692I-9843J0D01*
G01*
X213976Y67913D02*
G03*
X213976Y67913I-394J0D01*
G01*
X144882Y78051D02*
G03*
X144882Y59744I0J-9154D01*
G01*
X170079D02*
G03*
X170079Y78051I0J9154D01*
G01*
X144213Y131890D02*
G03*
X144213Y131890I-9843J0D01*
G01*
X125791Y33070D02*
G03*
X138109Y33246I6099J4331D01*
G01*
Y41557D02*
G03*
X125791Y41733I-6220J-4156D01*
G01*
X82480Y52362D02*
G03*
X82480Y52362I-9843J0D01*
G01*
X18307Y99814D02*
G03*
X18307Y99814I-394J0D01*
G01*
X45472Y46260D02*
G03*
X45472Y46260I-9843J0D01*
G01*
X5198Y27303D02*
Y45689D01*
X14410Y27303D02*
Y45689D01*
X232185Y141437D02*
Y165650D01*
X171201D02*
X232185D01*
X171201Y141437D02*
Y165650D01*
Y141437D02*
X232185D01*
X50945Y9685D02*
Y28189D01*
X91102Y9685D02*
Y28189D01*
X50945Y9685D02*
X91102D01*
X50945Y28189D02*
X91102D01*
X50945Y26221D02*
X91102D01*
X194921Y90394D02*
Y111260D01*
X57914Y103327D02*
Y111260D01*
Y90394D02*
Y98327D01*
Y111260D02*
X194921D01*
X57914Y90394D02*
X194921D01*
X204724Y117874D02*
X212598D01*
Y94252D02*
Y117874D01*
X204724Y94252D02*
Y117874D01*
Y94252D02*
X208661D01*
X212598D01*
X208661Y90709D02*
Y94252D01*
Y117874D02*
Y121417D01*
X15197Y145394D02*
X38976D01*
X15197Y104449D02*
Y125984D01*
Y133858D02*
Y145394D01*
Y104449D02*
X38976D01*
Y145394D01*
X110236Y72835D02*
X113779D01*
X83071D02*
X86614D01*
Y68898D02*
Y72835D01*
Y76772D01*
X110236D01*
X86614Y68898D02*
X110236D01*
Y76772D01*
X144882Y78051D02*
X170079D01*
X144882Y59744D02*
X170079D01*
X168307Y44291D02*
Y48327D01*
X154528D02*
X168307D01*
X154528Y44291D02*
Y48327D01*
X168307Y8957D02*
Y14764D01*
X154528Y8957D02*
X168307D01*
X154528D02*
Y14764D01*
X168307Y14764D02*
Y44291D01*
X154528Y14764D02*
Y44291D01*
X121575Y36417D02*
Y38386D01*
X120590Y37401D02*
X122559D01*
X104331Y14173D02*
Y17717D01*
X100394D02*
X108268D01*
X100394D02*
Y40248D01*
X108268Y17717D02*
Y40219D01*
X104331D02*
X108268D01*
X100394Y40248D02*
X104331D01*
Y40642D02*
Y45276D01*
X157480Y157480D02*
Y161024D01*
Y130315D02*
Y133858D01*
X161417D01*
X153543D02*
X157480D01*
X153543D02*
Y157480D01*
X161417Y133858D02*
Y157480D01*
X153543D02*
X161417D01*
X199803Y42323D02*
Y48327D01*
X186024D02*
X199803D01*
X186024Y42323D02*
Y48327D01*
X199803Y8957D02*
Y12795D01*
X186024Y8957D02*
X199803D01*
X186024D02*
Y12795D01*
X199803Y12795D02*
Y42323D01*
X186024Y12795D02*
Y42323D01*
X230315Y90551D02*
Y94094D01*
Y117716D02*
Y121260D01*
X226378Y117716D02*
X230315D01*
X234252D01*
Y94094D02*
Y117716D01*
X226378Y94094D02*
Y117716D01*
Y94094D02*
X234252D01*
D11*
X169331Y153543D02*
G03*
X169331Y153543I-492J0D01*
G01*
X48878Y17717D02*
G03*
X48878Y17717I-492J0D01*
G01*
X56791Y85827D02*
G03*
X56791Y85827I-492J0D01*
G01*
X26083Y102086D02*
G03*
X26083Y102086I-492J0D01*
G01*
D12*
X63031Y94331D02*
G03*
X63031Y94331I-1181J0D01*
G01*
D13*
X64764Y133692D02*
G03*
X64764Y133692I-197J0D01*
G01*
X134567Y145079D02*
G03*
X134567Y145079I-197J0D01*
G01*
X86023Y52362D02*
G03*
X86023Y52362I-197J0D01*
G01*
X35827Y33071D02*
G03*
X35827Y33071I-197J0D01*
G01*
X25390Y166999D02*
Y161000D01*
X25676Y166999D02*
X27389Y161857D01*
X25390Y166999D02*
X27389Y161000D01*
X29389Y166999D02*
X27389Y161000D01*
X29389Y166999D02*
Y161000D01*
X29675Y166999D02*
Y161000D01*
X24533Y166999D02*
X25676D01*
X29389D02*
X30532D01*
X24533Y161000D02*
X26247D01*
X28532D02*
X30532D01*
X31503Y163285D02*
X34931D01*
Y163856D01*
X34645Y164428D01*
X34359Y164714D01*
X33788Y164999D01*
X32931D01*
X32074Y164714D01*
X31503Y164142D01*
X31217Y163285D01*
Y162714D01*
X31503Y161857D01*
X32074Y161286D01*
X32931Y161000D01*
X33503D01*
X34359Y161286D01*
X34931Y161857D01*
X34645Y163285D02*
Y164142D01*
X34359Y164714D01*
X32931Y164999D02*
X32360Y164714D01*
X31789Y164142D01*
X31503Y163285D01*
Y162714D01*
X31789Y161857D01*
X32360Y161286D01*
X32931Y161000D01*
X39273Y166999D02*
Y161000D01*
X39558Y166999D02*
Y161000D01*
X39273Y164142D02*
X38701Y164714D01*
X38130Y164999D01*
X37559D01*
X36702Y164714D01*
X36130Y164142D01*
X35845Y163285D01*
Y162714D01*
X36130Y161857D01*
X36702Y161286D01*
X37559Y161000D01*
X38130D01*
X38701Y161286D01*
X39273Y161857D01*
X37559Y164999D02*
X36987Y164714D01*
X36416Y164142D01*
X36130Y163285D01*
Y162714D01*
X36416Y161857D01*
X36987Y161286D01*
X37559Y161000D01*
X38416Y166999D02*
X39558D01*
X39273Y161000D02*
X40415D01*
X42101Y166999D02*
Y161000D01*
X42386Y166999D02*
X44100Y161857D01*
X42101Y166999D02*
X44100Y161000D01*
X46100Y166999D02*
X44100Y161000D01*
X46100Y166999D02*
Y161000D01*
X46385Y166999D02*
Y161000D01*
X41244Y166999D02*
X42386D01*
X46100D02*
X47242D01*
X41244Y161000D02*
X42958D01*
X45243D02*
X47242D01*
X48785Y166999D02*
X48499Y166713D01*
X48785Y166427D01*
X49071Y166713D01*
X48785Y166999D01*
Y164999D02*
Y161000D01*
X49071Y164999D02*
Y161000D01*
X47928Y164999D02*
X49071D01*
X47928Y161000D02*
X49927D01*
X51870Y164999D02*
Y161000D01*
X52156Y164999D02*
Y161000D01*
Y164142D02*
X52727Y164714D01*
X53584Y164999D01*
X54155D01*
X55012Y164714D01*
X55298Y164142D01*
Y161000D01*
X54155Y164999D02*
X54726Y164714D01*
X55012Y164142D01*
Y161000D01*
X51013Y164999D02*
X52156D01*
X51013Y161000D02*
X53013D01*
X54155D02*
X56155D01*
X60354Y166999D02*
Y161000D01*
X60640Y166999D02*
Y161000D01*
X60354Y164142D02*
X59783Y164714D01*
X59211Y164999D01*
X58640D01*
X57783Y164714D01*
X57212Y164142D01*
X56926Y163285D01*
Y162714D01*
X57212Y161857D01*
X57783Y161286D01*
X58640Y161000D01*
X59211D01*
X59783Y161286D01*
X60354Y161857D01*
X58640Y164999D02*
X58069Y164714D01*
X57497Y164142D01*
X57212Y163285D01*
Y162714D01*
X57497Y161857D01*
X58069Y161286D01*
X58640Y161000D01*
X59497Y166999D02*
X60640D01*
X60354Y161000D02*
X61497D01*
X65181Y164428D02*
X65467Y164999D01*
Y163856D01*
X65181Y164428D01*
X64896Y164714D01*
X64324Y164999D01*
X63182D01*
X62611Y164714D01*
X62325Y164428D01*
Y163856D01*
X62611Y163571D01*
X63182Y163285D01*
X64610Y162714D01*
X65181Y162428D01*
X65467Y162143D01*
X62325Y164142D02*
X62611Y163856D01*
X63182Y163571D01*
X64610Y163000D01*
X65181Y162714D01*
X65467Y162428D01*
Y161571D01*
X65181Y161286D01*
X64610Y161000D01*
X63468D01*
X62896Y161286D01*
X62611Y161571D01*
X62325Y162143D01*
Y161000D01*
X62611Y161571D01*
X23653Y31086D02*
X19654D01*
Y33085D01*
X20321Y33751D01*
X21654D01*
X22320Y33085D01*
Y31086D01*
X19654Y35084D02*
X23653D01*
X22320Y36417D01*
X23653Y37750D01*
X19654D01*
X23653Y39083D02*
X19654D01*
Y41083D01*
X20321Y41749D01*
X21654D01*
X22320Y41083D01*
Y39083D01*
Y40416D02*
X23653Y41749D01*
X114476Y131057D02*
X113643Y130224D01*
Y128558D01*
X114476Y127724D01*
X117808D01*
X118641Y128558D01*
Y130224D01*
X117808Y131057D01*
X113643Y136055D02*
X114476Y134389D01*
X116142Y132723D01*
X117808D01*
X118641Y133556D01*
Y135222D01*
X117808Y136055D01*
X116975D01*
X116142Y135222D01*
Y132723D01*
X6208Y126589D02*
X5375Y125756D01*
Y124090D01*
X6208Y123257D01*
X9540D01*
X10373Y124090D01*
Y125756D01*
X9540Y126589D01*
X7874D01*
Y124923D01*
X5375Y128255D02*
X6208D01*
X7874Y129921D01*
X6208Y131587D01*
X5375D01*
X7874Y129921D02*
X10373D01*
Y133254D02*
X5375D01*
Y135753D01*
X6208Y136586D01*
X7874D01*
X8707Y135753D01*
Y133254D01*
Y134920D02*
X10373Y136586D01*
X241672Y153253D02*
Y156586D01*
X236674D01*
Y153253D01*
X239173Y156586D02*
Y154920D01*
X240839Y148255D02*
X241672Y149088D01*
Y150754D01*
X240839Y151587D01*
X240006D01*
X239173Y150754D01*
Y149088D01*
X238340Y148255D01*
X237507D01*
X236674Y149088D01*
Y150754D01*
X237507Y151587D01*
X236674Y146589D02*
X241672D01*
Y144090D01*
X240839Y143257D01*
X239173D01*
X238340Y144090D01*
Y146589D01*
X91839Y132459D02*
X91006Y131626D01*
Y129959D01*
X91839Y129127D01*
X95171D01*
X96004Y129959D01*
Y131626D01*
X95171Y132459D01*
X91006Y137457D02*
Y134125D01*
X93505D01*
X92672Y135791D01*
Y136624D01*
X93505Y137457D01*
X95171D01*
X96004Y136624D01*
Y134958D01*
X95171Y134125D01*
X208222Y17534D02*
X207389Y18367D01*
X205723D01*
X204890Y17534D01*
Y14201D01*
X205723Y13368D01*
X207389D01*
X208222Y14201D01*
X212388Y13368D02*
Y18367D01*
X209888Y15867D01*
X213221D01*
X205283Y131359D02*
Y136357D01*
X207783D01*
X208616Y135524D01*
Y133858D01*
X207783Y133025D01*
X205283D01*
X206950D02*
X208616Y131359D01*
X213614Y136357D02*
X210282D01*
Y133858D01*
X211948Y134691D01*
X212781D01*
X213614Y133858D01*
Y132192D01*
X212781Y131359D01*
X211115D01*
X210282Y132192D01*
X226150Y75847D02*
Y80845D01*
X228649D01*
X229482Y80012D01*
Y78346D01*
X228649Y77513D01*
X226150D01*
X227816D02*
X229482Y75847D01*
X233647D02*
Y80845D01*
X231148Y78346D01*
X234480D01*
X169822Y127003D02*
X164824D01*
Y129502D01*
X165657Y130335D01*
X167323D01*
X168156Y129502D01*
Y127003D01*
Y128669D02*
X169822Y130335D01*
Y135333D02*
Y132001D01*
X166490Y135333D01*
X165657D01*
X164824Y134500D01*
Y132834D01*
X165657Y132001D01*
X65132Y70736D02*
Y75734D01*
X67632D01*
X68465Y74901D01*
Y73235D01*
X67632Y72402D01*
X65132D01*
X66799D02*
X68465Y70736D01*
X70131D02*
X71797D01*
X70964D01*
Y75734D01*
X70131Y74901D01*
X162672Y56374D02*
X161839Y57207D01*
X160173D01*
X159340Y56374D01*
Y53041D01*
X160173Y52208D01*
X161839D01*
X162672Y53041D01*
X164338Y56374D02*
X165171Y57207D01*
X166838D01*
X167671Y56374D01*
Y55541D01*
X166838Y54707D01*
X166005D01*
X166838D01*
X167671Y53874D01*
Y53041D01*
X166838Y52208D01*
X165171D01*
X164338Y53041D01*
X126253Y23091D02*
Y28090D01*
X128752D01*
X129585Y27257D01*
Y25591D01*
X128752Y24757D01*
X126253D01*
X131251Y28090D02*
Y23091D01*
X132917Y24757D01*
X134584Y23091D01*
Y28090D01*
X136250Y23091D02*
Y28090D01*
X138749D01*
X139582Y27257D01*
Y25591D01*
X138749Y24757D01*
X136250D01*
X137916D02*
X139582Y23091D01*
X141248Y28090D02*
Y23091D01*
X144580D01*
X184318Y66399D02*
X183485Y65565D01*
Y63899D01*
X184318Y63066D01*
X187650D01*
X188484Y63899D01*
Y65565D01*
X187650Y66399D01*
X188484Y68065D02*
Y69731D01*
Y68898D01*
X183485D01*
Y68065D01*
X188484Y72230D02*
X183485D01*
X186817D02*
X185151Y74729D01*
X186817Y72230D02*
X188484Y74729D01*
X243307Y39461D02*
X242474Y40295D01*
X240808D01*
X239975Y39461D01*
Y38628D01*
X240808Y37795D01*
X242474D01*
X243307Y36962D01*
Y36129D01*
X242474Y35296D01*
X240808D01*
X239975Y36129D01*
X244973Y35296D02*
X246639D01*
X245806D01*
Y40295D01*
X244973Y39461D01*
X6405Y76343D02*
X5572Y75510D01*
Y73844D01*
X6405Y73011D01*
X7238D01*
X8071Y73844D01*
Y75510D01*
X8904Y76343D01*
X9737D01*
X10570Y75510D01*
Y73844D01*
X9737Y73011D01*
X10570Y81341D02*
Y78009D01*
X7238Y81341D01*
X6405D01*
X5572Y80508D01*
Y78842D01*
X6405Y78009D01*
X89855Y45321D02*
X90688Y46154D01*
Y47820D01*
X89855Y48654D01*
X86523D01*
X85690Y47820D01*
Y46154D01*
X86523Y45321D01*
X85690Y40323D02*
Y43655D01*
X89022Y40323D01*
X89855D01*
X90688Y41156D01*
Y42822D01*
X89855Y43655D01*
X52362Y50879D02*
X51529Y51712D01*
X49863D01*
X49030Y50879D01*
Y47546D01*
X49863Y46714D01*
X51529D01*
X52362Y47546D01*
X54028Y46714D02*
X55694D01*
X54861D01*
Y51712D01*
X54028Y50879D01*
X111976Y10269D02*
Y15268D01*
X114476D01*
X115309Y14435D01*
Y12768D01*
X114476Y11935D01*
X111976D01*
X113643D02*
X115309Y10269D01*
X116975Y14435D02*
X117808Y15268D01*
X119474D01*
X120307Y14435D01*
Y13601D01*
X119474Y12768D01*
X118641D01*
X119474D01*
X120307Y11935D01*
Y11102D01*
X119474Y10269D01*
X117808D01*
X116975Y11102D01*
X47828Y94072D02*
X52826D01*
X53826Y95072D01*
Y97071D01*
X52826Y98071D01*
X47828D01*
X53826Y100070D02*
Y102069D01*
Y101070D01*
X47828D01*
X48827Y100070D01*
D14*
X16694Y30591D02*
Y32559D01*
Y40433D02*
Y42402D01*
Y41417D02*
Y42402D01*
Y41417D02*
X16694Y41417D01*
X15709D02*
X17678D01*
D15*
X91457Y150236D02*
Y168740D01*
Y150236D02*
X132953D01*
Y168740D01*
X91457D02*
X132953D01*
X210630Y40620D02*
Y56103D01*
X234252Y40620D02*
Y57805D01*
X218504Y61024D02*
X226378D01*
X217786Y37402D02*
X226378D01*
X22116Y69302D02*
X30709D01*
X22835Y92924D02*
X30709D01*
X38583Y72255D02*
Y87019D01*
X14960Y88987D02*
X14961Y72521D01*
X58571Y13326D02*
Y11993D01*
X59237Y11327D01*
X59904Y11993D01*
Y13326D01*
X61903Y12660D02*
X60903D01*
X60570Y12326D01*
Y11660D01*
X60903Y11327D01*
X61903D01*
X63902Y12660D02*
X62903D01*
X62570Y12326D01*
Y11660D01*
X62903Y11327D01*
X63902D01*
X69707Y12993D02*
X69374Y13326D01*
X68707D01*
X68374Y12993D01*
Y11660D01*
X68707Y11327D01*
X69374D01*
X69707Y11660D01*
Y12326D01*
X69040D01*
X70373Y11327D02*
Y13326D01*
X71706Y11327D01*
Y13326D01*
X72373D02*
Y11327D01*
X73372D01*
X73706Y11660D01*
Y12993D01*
X73372Y13326D01*
X72373D01*
X80629D02*
X79296D01*
Y12326D01*
X79963Y12660D01*
X80296D01*
X80629Y12326D01*
Y11660D01*
X80296Y11327D01*
X79630D01*
X79296Y11660D01*
X81296Y13326D02*
Y11993D01*
X81962Y11327D01*
X82629Y11993D01*
Y13326D01*
X33329Y110434D02*
X32996Y110767D01*
X32329D01*
X31996Y110434D01*
Y110101D01*
X32329Y109767D01*
X32996D01*
X33329Y109434D01*
Y109101D01*
X32996Y108768D01*
X32329D01*
X31996Y109101D01*
X33995Y110767D02*
Y108768D01*
X34995D01*
X35328Y109101D01*
Y110434D01*
X34995Y110767D01*
X33995D01*
X35995Y108768D02*
Y110101D01*
X36661Y110767D01*
X37328Y110101D01*
Y108768D01*
Y109767D01*
X35995D01*
X33329Y119902D02*
X32996Y120235D01*
X32329D01*
X31996Y119902D01*
Y119569D01*
X32329Y119236D01*
X32996D01*
X33329Y118902D01*
Y118569D01*
X32996Y118236D01*
X32329D01*
X31996Y118569D01*
X35328Y119902D02*
X34995Y120235D01*
X34329D01*
X33995Y119902D01*
Y118569D01*
X34329Y118236D01*
X34995D01*
X35328Y118569D01*
X35995Y120235D02*
Y118236D01*
X37328D01*
X33329Y129902D02*
X32996Y130235D01*
X32329D01*
X31996Y129902D01*
Y128569D01*
X32329Y128236D01*
X32996D01*
X33329Y128569D01*
Y129235D01*
X32662D01*
X33995Y128236D02*
Y130235D01*
X35328Y128236D01*
Y130235D01*
X35995D02*
Y128236D01*
X36994D01*
X37328Y128569D01*
Y129902D01*
X36994Y130235D01*
X35995D01*
X33329Y140235D02*
X31996D01*
Y139235D01*
X32662Y139569D01*
X32996D01*
X33329Y139235D01*
Y138569D01*
X32996Y138236D01*
X32329D01*
X31996Y138569D01*
X33995Y140235D02*
Y138902D01*
X34662Y138236D01*
X35328Y138902D01*
Y140235D01*
X111515Y162508D02*
X111182Y162841D01*
Y163508D01*
X111515Y163841D01*
X111848D01*
X112181Y163508D01*
Y163174D01*
Y163508D01*
X112515Y163841D01*
X112848D01*
X113181Y163508D01*
Y162841D01*
X112848Y162508D01*
X111182Y164507D02*
X112515D01*
X113181Y165174D01*
X112515Y165840D01*
X111182D01*
X111515Y166507D02*
X111182Y166840D01*
Y167506D01*
X111515Y167840D01*
X111848D01*
X112181Y167506D01*
Y167173D01*
Y167506D01*
X112515Y167840D01*
X112848D01*
X113181Y167506D01*
Y166840D01*
X112848Y166507D01*
X100847Y165219D02*
Y163886D01*
X101847D01*
X101514Y164552D01*
Y164885D01*
X101847Y165219D01*
X102513D01*
X102847Y164885D01*
Y164219D01*
X102513Y163886D01*
X100847Y165885D02*
X102180D01*
X102847Y166552D01*
X102180Y167218D01*
X100847D01*
X121653Y163841D02*
X121319Y163507D01*
Y162841D01*
X121653Y162508D01*
X122986D01*
X123319Y162841D01*
Y163507D01*
X122986Y163841D01*
X122319D01*
Y163174D01*
X123319Y164507D02*
X121319D01*
X123319Y165840D01*
X121319D01*
Y166507D02*
X123319D01*
Y167506D01*
X122986Y167840D01*
X121653D01*
X121319Y167506D01*
Y166507D01*
X177284Y146789D02*
X177618Y147122D01*
Y147789D01*
X177284Y148122D01*
X175951D01*
X175618Y147789D01*
Y147122D01*
X175951Y146789D01*
X176618D01*
Y147456D01*
X175618Y146123D02*
X177618D01*
X175618Y144790D01*
X177618D01*
Y144123D02*
X175618D01*
Y143124D01*
X175951Y142790D01*
X177284D01*
X177618Y143124D01*
Y144123D01*
X187460Y148122D02*
Y146789D01*
Y147456D01*
X185461D01*
X187460Y146123D02*
X185461Y144790D01*
X187460D02*
X185461Y146123D01*
X195303Y148122D02*
X197302D01*
Y147122D01*
X196969Y146789D01*
X196303D01*
X195970Y147122D01*
Y148122D01*
Y147456D02*
X195303Y146789D01*
X197302Y146123D02*
X195303Y144790D01*
X197302D02*
X195303Y146123D01*
X206130Y148122D02*
X208129D01*
Y147122D01*
X207796Y146789D01*
X207130D01*
X206796Y147122D01*
Y148122D01*
Y147456D02*
X206130Y146789D01*
X207796Y144790D02*
X208129Y145123D01*
Y145790D01*
X207796Y146123D01*
X207463D01*
X207130Y145790D01*
Y145123D01*
X206796Y144790D01*
X206463D01*
X206130Y145123D01*
Y145790D01*
X206463Y146123D01*
X208129Y144123D02*
Y142790D01*
Y143457D01*
X206130D01*
X217638Y148122D02*
X217972Y147789D01*
Y147122D01*
X217638Y146789D01*
X217305D01*
X216972Y147122D01*
Y147456D01*
Y147122D01*
X216639Y146789D01*
X216306D01*
X215972Y147122D01*
Y147789D01*
X216306Y148122D01*
X217972Y146123D02*
X216639D01*
X215972Y145456D01*
X216639Y144790D01*
X217972D01*
X217638Y144123D02*
X217972Y143790D01*
Y143124D01*
X217638Y142790D01*
X217305D01*
X216972Y143124D01*
Y143457D01*
Y143124D01*
X216639Y142790D01*
X216306D01*
X215972Y143124D01*
Y143790D01*
X216306Y144123D01*
X227481Y148122D02*
X227814Y147789D01*
Y147122D01*
X227481Y146789D01*
X227148D01*
X226815Y147122D01*
Y147456D01*
Y147122D01*
X226481Y146789D01*
X226148D01*
X225815Y147122D01*
Y147789D01*
X226148Y148122D01*
X227814Y146123D02*
X226481D01*
X225815Y145456D01*
X226481Y144790D01*
X227814D01*
X227481Y144123D02*
X227814Y143790D01*
Y143124D01*
X227481Y142790D01*
X227148D01*
X226815Y143124D01*
Y143457D01*
Y143124D01*
X226481Y142790D01*
X226148D01*
X225815Y143124D01*
Y143790D01*
X226148Y144123D01*
D16*
X103184Y173744D02*
X103684Y174243D01*
X104684D01*
X105184Y173744D01*
Y173244D01*
X104684Y172744D01*
X104184D01*
X104684D01*
X105184Y172244D01*
Y171744D01*
X104684Y171244D01*
X103684D01*
X103184Y171744D01*
X106183Y174243D02*
Y172244D01*
X107183Y171244D01*
X108183Y172244D01*
Y174243D01*
X109182Y173744D02*
X109682Y174243D01*
X110682D01*
X111182Y173744D01*
Y173244D01*
X110682Y172744D01*
X110182D01*
X110682D01*
X111182Y172244D01*
Y171744D01*
X110682Y171244D01*
X109682D01*
X109182Y171744D01*
X115180Y173244D02*
Y171244D01*
Y172244D01*
X115680Y172744D01*
X116180Y173244D01*
X116680D01*
X119679Y171244D02*
X118679D01*
X118180Y171744D01*
Y172744D01*
X118679Y173244D01*
X119679D01*
X120179Y172744D01*
Y172244D01*
X118180D01*
X122178Y170245D02*
X122678D01*
X123178Y170745D01*
Y173244D01*
X121678D01*
X121178Y172744D01*
Y171744D01*
X121678Y171244D01*
X123178D01*
X62776Y30981D02*
X63776D01*
X63276D01*
Y33980D01*
X62776D01*
X65275Y30981D02*
Y32980D01*
X65775D01*
X66275Y32480D01*
Y30981D01*
Y32480D01*
X66775Y32980D01*
X67275Y32480D01*
Y30981D01*
X68274Y33980D02*
X70274D01*
Y33480D01*
X68274Y31481D01*
Y30981D01*
X71273Y33480D02*
X71773Y33980D01*
X72773D01*
X73273Y33480D01*
Y32980D01*
X72773Y32480D01*
X73273Y31980D01*
Y31481D01*
X72773Y30981D01*
X71773D01*
X71273Y31481D01*
Y31980D01*
X71773Y32480D01*
X71273Y32980D01*
Y33480D01*
X71773Y32480D02*
X72773D01*
X74273Y33480D02*
X74772Y33980D01*
X75772D01*
X76272Y33480D01*
Y31481D01*
X75772Y30981D01*
X74772D01*
X74273Y31481D01*
Y33480D01*
X79271Y33980D02*
X77272D01*
Y32480D01*
X78271Y32980D01*
X78771D01*
X79271Y32480D01*
Y31481D01*
X78771Y30981D01*
X77771D01*
X77272Y31481D01*
M02*
