G04*
G04 #@! TF.GenerationSoftware,Altium Limited,Altium Designer,23.6.0 (18)*
G04*
G04 Layer_Color=16711935*
%FSLAX25Y25*%
%MOIN*%
G70*
G04*
G04 #@! TF.SameCoordinates,B90E1885-5EE6-4A3D-B461-7850E0AA74F3*
G04*
G04*
G04 #@! TF.FilePolarity,Positive*
G04*
G01*
G75*
%ADD10C,0.00787*%
%ADD15C,0.00500*%
%ADD59C,0.00394*%
D10*
X102598Y147480D02*
G03*
X102598Y147480I-394J0D01*
G01*
X213976Y67913D02*
G03*
X213976Y67913I-394J0D01*
G01*
X18307Y99814D02*
G03*
X18307Y99814I-394J0D01*
G01*
D15*
X91457Y150236D02*
Y168740D01*
Y150236D02*
X132953D01*
Y168740D01*
X91457D02*
X132953D01*
X234252Y37402D02*
Y61024D01*
X210630Y37402D02*
X234252D01*
X210630D02*
Y61024D01*
X234252D01*
X14961Y92924D02*
X38583D01*
X14961Y69302D02*
Y92924D01*
Y69302D02*
X38583D01*
Y92924D01*
D59*
X63425Y90197D02*
G03*
X63425Y90197I-1969J0D01*
G01*
X170079Y59744D02*
G03*
X170079Y78051I0J9154D01*
G01*
X144882D02*
G03*
X144882Y59744I0J-9154D01*
G01*
X138779Y37401D02*
G03*
X138779Y37401I-6890J0D01*
G01*
X137992Y37402D02*
G03*
X137992Y37402I-6102J0D01*
G01*
X139370D02*
G03*
X139370Y37402I-7480J0D01*
G01*
X5198Y27303D02*
Y45689D01*
X14410D01*
Y27303D02*
Y45689D01*
X50945Y9685D02*
X91102D01*
X50945Y28189D02*
X91102D01*
X50945Y9685D02*
Y28189D01*
X91102Y9685D02*
Y28189D01*
X50945Y22874D02*
X91102D01*
X194921Y86654D02*
Y115000D01*
X57914Y86654D02*
Y115000D01*
X194921D01*
X57914Y86654D02*
X194921D01*
X144882Y59744D02*
X170079D01*
X144882Y78051D02*
X170079D01*
M02*
